<mxfile host="app.diagrams.net" modified="2022-01-21T03:18:24.303Z" agent="5.0 (Windows NT 10.0; Win64; x64) AppleWebKit/537.36 (KHTML, like Gecko) Chrome/97.0.4692.71 Safari/537.36 Edg/97.0.1072.62" etag="A7Aa6FEF4yPLIqX81SCV" version="16.2.4" type="github">
  <diagram id="TSvHupmV6pkLSiCcQYH6" name="第 1 页">
    <mxGraphModel dx="1038" dy="547" grid="1" gridSize="10" guides="1" tooltips="1" connect="1" arrows="1" fold="1" page="1" pageScale="1" pageWidth="827" pageHeight="1169" math="0" shadow="0">
      <root>
        <mxCell id="0" />
        <mxCell id="1" parent="0" />
        <mxCell id="2_yFW19Lb9jpXho9O63r-2" value="" style="shape=image;html=1;verticalAlign=top;verticalLabelPosition=bottom;labelBackgroundColor=#ffffff;imageAspect=0;aspect=fixed;image=https://cdn0.iconfinder.com/data/icons/logos-microsoft-office-365/128/Microsoft_Office_Mesa_de_trabajo_1-128.png" vertex="1" parent="1">
          <mxGeometry x="569" y="186" width="105" height="105" as="geometry" />
        </mxCell>
        <mxCell id="2_yFW19Lb9jpXho9O63r-4" value="导出" style="edgeStyle=orthogonalEdgeStyle;rounded=0;orthogonalLoop=1;jettySize=auto;html=1;exitX=1;exitY=0.5;exitDx=0;exitDy=0;entryX=0;entryY=0.5;entryDx=0;entryDy=0;" edge="1" parent="1" source="2_yFW19Lb9jpXho9O63r-3" target="2_yFW19Lb9jpXho9O63r-2">
          <mxGeometry relative="1" as="geometry" />
        </mxCell>
        <mxCell id="2_yFW19Lb9jpXho9O63r-12" value="保存/加载" style="edgeStyle=orthogonalEdgeStyle;rounded=0;orthogonalLoop=1;jettySize=auto;html=1;exitX=0;exitY=0.5;exitDx=0;exitDy=0;shape=link;strokeColor=#001DBC;fillColor=#0050ef;" edge="1" parent="1" source="2_yFW19Lb9jpXho9O63r-3" target="2_yFW19Lb9jpXho9O63r-11">
          <mxGeometry relative="1" as="geometry" />
        </mxCell>
        <mxCell id="2_yFW19Lb9jpXho9O63r-3" value="ATS Client" style="rounded=0;whiteSpace=wrap;html=1;" vertex="1" parent="1">
          <mxGeometry x="340" y="189.5" width="110" height="101" as="geometry" />
        </mxCell>
        <mxCell id="2_yFW19Lb9jpXho9O63r-11" value="" style="dashed=0;outlineConnect=0;html=1;align=center;labelPosition=center;verticalLabelPosition=bottom;verticalAlign=top;shape=mxgraph.weblogos.json" vertex="1" parent="1">
          <mxGeometry x="125" y="191.5" width="90" height="97" as="geometry" />
        </mxCell>
      </root>
    </mxGraphModel>
  </diagram>
</mxfile>
